# Blender v2.76 (sub 0) OBJ File: 'ArrowPointer.blend'
# www.blender.org
mtllib ArrowPointerThin.mtl
g Cylinder
v 0.000000 0.000000 -0.060000
v 0.000000 10.000000 -0.060000
v 0.011705 0.000000 -0.058847
v 0.011705 10.000000 -0.058847
v 0.022961 0.000000 -0.055433
v 0.022961 10.000000 -0.055433
v 0.033334 0.000000 -0.049888
v 0.033334 10.000000 -0.049888
v 0.042426 0.000000 -0.042426
v 0.042426 10.000000 -0.042426
v 0.049888 0.000000 -0.033334
v 0.049888 10.000000 -0.033334
v 0.055433 0.000000 -0.022961
v 0.055433 10.000000 -0.022961
v 0.058847 0.000000 -0.011705
v 0.058847 10.000000 -0.011705
v 0.060000 0.000000 -0.000000
v 0.060000 10.000000 -0.000000
v 0.058847 0.000000 0.011705
v 0.058847 10.000000 0.011705
v 0.055433 0.000000 0.022961
v 0.055433 10.000000 0.022961
v 0.049888 0.000000 0.033334
v 0.049888 10.000000 0.033334
v 0.042426 0.000000 0.042426
v 0.042426 10.000000 0.042426
v 0.033334 0.000000 0.049888
v 0.033334 10.000000 0.049888
v 0.022961 0.000000 0.055433
v 0.022961 10.000000 0.055433
v 0.011705 0.000000 0.058847
v 0.011705 10.000000 0.058847
v -0.000000 0.000000 0.060000
v -0.000000 10.000000 0.060000
v -0.011705 0.000000 0.058847
v -0.011705 10.000000 0.058847
v -0.022961 0.000000 0.055433
v -0.022961 10.000000 0.055433
v -0.033334 0.000000 0.049888
v -0.033334 10.000000 0.049888
v -0.042426 0.000000 0.042426
v -0.042426 10.000000 0.042426
v -0.049888 0.000000 0.033334
v -0.049888 10.000000 0.033334
v -0.055433 0.000000 0.022961
v -0.055433 10.000000 0.022961
v -0.058847 0.000000 0.011705
v -0.058847 10.000000 0.011705
v -0.060000 0.000000 -0.000000
v -0.060000 10.000000 -0.000000
v -0.058847 0.000000 -0.011705
v -0.058847 10.000000 -0.011705
v -0.055433 0.000000 -0.022961
v -0.055433 10.000000 -0.022961
v -0.049888 0.000000 -0.033334
v -0.049888 10.000000 -0.033334
v -0.042426 0.000000 -0.042426
v -0.042426 10.000000 -0.042426
v -0.033334 0.000000 -0.049888
v -0.033334 10.000000 -0.049888
v -0.022961 0.000000 -0.055433
v -0.022961 10.000000 -0.055433
v -0.011705 0.000000 -0.058847
v -0.011705 10.000000 -0.058847
v 0.000000 9.983116 -0.600000
v 0.117054 9.983116 -0.588471
v 0.229610 9.983116 -0.554328
v 0.333342 9.983116 -0.498882
v 0.424264 9.983116 -0.424264
v 0.498882 9.983116 -0.333342
v 0.554328 9.983116 -0.229610
v 0.588471 9.983116 -0.117054
v 0.600000 9.983116 -0.000000
v 0.000000 11.983117 0.000000
v 0.588471 9.983116 0.117054
v 0.554328 9.983116 0.229610
v 0.498882 9.983116 0.333342
v 0.424264 9.983116 0.424264
v 0.333342 9.983116 0.498882
v 0.229610 9.983116 0.554328
v 0.117054 9.983116 0.588471
v -0.000000 9.983116 0.600000
v -0.117054 9.983116 0.588471
v -0.229610 9.983116 0.554328
v -0.333342 9.983116 0.498882
v -0.424264 9.983116 0.424264
v -0.498882 9.983116 0.333342
v -0.554328 9.983116 0.229610
v -0.588471 9.983116 0.117054
v -0.600000 9.983116 -0.000001
v -0.588471 9.983116 -0.117055
v -0.554327 9.983116 -0.229611
v -0.498881 9.983116 -0.333343
v -0.424264 9.983116 -0.424265
v -0.333342 9.983116 -0.498882
v -0.229609 9.983116 -0.554328
v -0.117053 9.983116 -0.588471
vn 0.098000 0.000000 -0.995200
vn 0.290300 0.000000 -0.956900
vn 0.471400 0.000000 -0.881900
vn 0.634400 0.000000 -0.773000
vn 0.773000 0.000000 -0.634400
vn 0.881900 0.000000 -0.471400
vn 0.956900 0.000000 -0.290300
vn 0.995200 0.000000 -0.098000
vn 0.995200 0.000000 0.098000
vn 0.956900 0.000000 0.290300
vn 0.881900 0.000000 0.471400
vn 0.773000 0.000000 0.634400
vn 0.634400 0.000000 0.773000
vn 0.471400 0.000000 0.881900
vn 0.290300 0.000000 0.956900
vn 0.098000 0.000000 0.995200
vn -0.098000 0.000000 0.995200
vn -0.290300 0.000000 0.956900
vn -0.471400 0.000000 0.881900
vn -0.634400 0.000000 0.773000
vn -0.773000 0.000000 0.634400
vn -0.881900 0.000000 0.471400
vn -0.956900 0.000000 0.290300
vn -0.995200 0.000000 0.098000
vn -0.995200 0.000000 -0.098000
vn -0.956900 0.000000 -0.290300
vn -0.881900 0.000000 -0.471400
vn -0.773000 0.000000 -0.634400
vn -0.634400 0.000000 -0.773000
vn -0.471400 0.000000 -0.881900
vn 0.000000 1.000000 -0.000000
vn -0.098000 0.000000 -0.995200
vn -0.290300 0.000000 -0.956900
vn 0.000000 -1.000000 0.000000
vn -0.278200 0.286100 -0.916900
vn 0.093900 0.286100 -0.953600
vn -0.451700 0.286100 -0.845100
vn -0.607900 0.286100 -0.740700
vn -0.740700 0.286100 -0.607900
vn -0.845100 0.286100 -0.451700
vn -0.916900 0.286100 -0.278200
vn -0.953600 0.286100 -0.093900
vn -0.953600 0.286100 0.093900
vn -0.916900 0.286100 0.278200
vn -0.845100 0.286100 0.451700
vn -0.740700 0.286100 0.607900
vn -0.607900 0.286100 0.740700
vn -0.451700 0.286100 0.845100
vn -0.278200 0.286100 0.916900
vn -0.093900 0.286100 0.953600
vn 0.093900 0.286100 0.953600
vn 0.278200 0.286100 0.916900
vn 0.451700 0.286100 0.845100
vn 0.607900 0.286100 0.740700
vn 0.740700 0.286100 0.607900
vn 0.845100 0.286100 0.451700
vn 0.916900 0.286100 0.278200
vn 0.953600 0.286100 0.093900
vn 0.953600 0.286100 -0.093900
vn 0.916900 0.286100 -0.278200
vn 0.845100 0.286100 -0.451700
vn 0.740700 0.286100 -0.607900
vn 0.607900 0.286100 -0.740700
vn 0.451700 0.286100 -0.845100
vn -0.093900 0.286100 -0.953600
vn 0.278200 0.286100 -0.916900
usemtl (null)
s off
f 1//1 2//1 4//1 3//1
f 3//2 4//2 6//2 5//2
f 5//3 6//3 8//3 7//3
f 7//4 8//4 10//4 9//4
f 9//5 10//5 12//5 11//5
f 11//6 12//6 14//6 13//6
f 13//7 14//7 16//7 15//7
f 15//8 16//8 18//8 17//8
f 17//9 18//9 20//9 19//9
f 19//10 20//10 22//10 21//10
f 21//11 22//11 24//11 23//11
f 23//12 24//12 26//12 25//12
f 25//13 26//13 28//13 27//13
f 27//14 28//14 30//14 29//14
f 29//15 30//15 32//15 31//15
f 31//16 32//16 34//16 33//16
f 33//17 34//17 36//17 35//17
f 35//18 36//18 38//18 37//18
f 37//19 38//19 40//19 39//19
f 39//20 40//20 42//20 41//20
f 41//21 42//21 44//21 43//21
f 43//22 44//22 46//22 45//22
f 45//23 46//23 48//23 47//23
f 47//24 48//24 50//24 49//24
f 49//25 50//25 52//25 51//25
f 51//26 52//26 54//26 53//26
f 53//27 54//27 56//27 55//27
f 55//28 56//28 58//28 57//28
f 57//29 58//29 60//29 59//29
f 59//30 60//30 62//30 61//30
f 4//31 2//31 64//31 62//31 60//31 58//31 56//31 54//31 52//31 50//31 48//31 46//31 44//31 42//31 40//31 38//31 36//31 34//31 32//31 30//31 28//31 26//31 24//31 22//31 20//31 18//31 16//31 14//31 12//31 10//31 8//31 6//31
f 63//32 64//32 2//32 1//32
f 61//33 62//33 64//33 63//33
f 1//34 3//34 5//34 7//34 9//34 11//34 13//34 15//34 17//34 19//34 21//34 23//34 25//34 27//34 29//34 31//34 33//34 35//34 37//34 39//34 41//34 43//34 45//34 47//34 49//34 51//34 53//34 55//34 57//34 59//34 61//34 63//34
f 96//35 74//35 97//35
f 65//36 74//36 66//36
f 95//37 74//37 96//37
f 94//38 74//38 95//38
f 93//39 74//39 94//39
f 92//40 74//40 93//40
f 91//41 74//41 92//41
f 90//42 74//42 91//42
f 89//43 74//43 90//43
f 88//44 74//44 89//44
f 87//45 74//45 88//45
f 86//46 74//46 87//46
f 85//47 74//47 86//47
f 84//48 74//48 85//48
f 83//49 74//49 84//49
f 82//50 74//50 83//50
f 81//51 74//51 82//51
f 80//52 74//52 81//52
f 79//53 74//53 80//53
f 78//54 74//54 79//54
f 77//55 74//55 78//55
f 76//56 74//56 77//56
f 75//57 74//57 76//57
f 73//58 74//58 75//58
f 72//59 74//59 73//59
f 71//60 74//60 72//60
f 70//61 74//61 71//61
f 69//62 74//62 70//62
f 68//63 74//63 69//63
f 67//64 74//64 68//64
f 97//65 74//65 65//65
f 66//66 74//66 67//66
f 65//34 66//34 67//34 68//34 69//34 70//34 71//34 72//34 73//34 75//34 76//34 77//34 78//34 79//34 80//34 81//34 82//34 83//34 84//34 85//34 86//34 87//34 88//34 89//34 90//34 91//34 92//34 93//34 94//34 95//34 96//34 97//34
